<mxfile host="65bd71144e">
    <diagram id="1luOUwjNkrvO2G2qSXDc" name="Page-1">
        <mxGraphModel dx="1054" dy="602" grid="1" gridSize="11" guides="1" tooltips="1" connect="1" arrows="1" fold="1" page="1" pageScale="1" pageWidth="850" pageHeight="1100" background="#1A1A1A" math="0" shadow="1">
            <root>
                <mxCell id="0"/>
                <mxCell id="1" parent="0"/>
                <mxCell id="2" value="Piece1" style="rounded=1;whiteSpace=wrap;html=1;fillColor=#f5f5f5;fontColor=#333333;strokeColor=#666666;" parent="1" vertex="1">
                    <mxGeometry x="30" y="310" width="100" height="40" as="geometry"/>
                </mxCell>
                <mxCell id="3" value="Actor" style="shape=umlActor;verticalLabelPosition=bottom;verticalAlign=top;html=1;outlineConnect=0;" parent="1" vertex="1">
                    <mxGeometry x="400" y="230" width="30" height="60" as="geometry"/>
                </mxCell>
                <mxCell id="4" value="&lt;h6&gt;&lt;font face=&quot;Tahoma&quot;&gt;&lt;span style=&quot;color: rgb(32 , 33 , 34) ; font-size: 14px ; font-weight: 400 ; background-color: rgb(255 , 255 , 255)&quot;&gt;BitTorrent downloads in a random or in a &lt;/span&gt;&lt;span style=&quot;font-size: 14px ; font-weight: 400 ; background-color: rgb(255 , 255 , 255)&quot;&gt;&lt;font color=&quot;#220b05&quot;&gt;&quot;rarest-first&quot;&lt;/font&gt;&lt;/span&gt;&lt;span style=&quot;color: rgb(32 , 33 , 34) ; font-size: 14px ; font-weight: 400 ; background-color: rgb(255 , 255 , 255)&quot;&gt;&amp;nbsp;approach that ensures high availability,&lt;/span&gt;&lt;/font&gt;&lt;/h6&gt;" style="text;html=1;strokeColor=none;fillColor=none;spacing=5;spacingTop=-20;whiteSpace=wrap;overflow=hidden;rounded=0;" parent="1" vertex="1">
                    <mxGeometry x="330" y="140" width="240" height="60" as="geometry"/>
                </mxCell>
                <mxCell id="5" value="Downloads" style="rounded=1;whiteSpace=wrap;html=1;arcSize=50;" parent="1" vertex="1">
                    <mxGeometry x="380" y="60" width="120" height="50" as="geometry"/>
                </mxCell>
                <mxCell id="6" value="" style="endArrow=none;dashed=1;html=1;dashPattern=1 3;strokeWidth=2;exitX=0.25;exitY=0;exitDx=0;exitDy=0;" parent="1" source="4" edge="1">
                    <mxGeometry width="50" height="50" relative="1" as="geometry">
                        <mxPoint x="370" y="230" as="sourcePoint"/>
                        <mxPoint x="440" y="120" as="targetPoint"/>
                    </mxGeometry>
                </mxCell>
                <mxCell id="13" style="edgeStyle=none;html=1;exitX=0.25;exitY=1;exitDx=0;exitDy=0;entryX=0.5;entryY=0;entryDx=0;entryDy=0;fontFamily=Tahoma;fontColor=#FFFFFF;" parent="1" source="7" target="2" edge="1">
                    <mxGeometry relative="1" as="geometry"/>
                </mxCell>
                <mxCell id="7" value="&lt;font color=&quot;#ffffff&quot;&gt;Piece Manager&lt;/font&gt;" style="rounded=1;whiteSpace=wrap;html=1;fontFamily=Tahoma;fontColor=#333333;fillColor=#1D33F5;strokeColor=#666666;" parent="1" vertex="1">
                    <mxGeometry x="100" y="160" width="120" height="60" as="geometry"/>
                </mxCell>
                <mxCell id="8" value="Piece2" style="rounded=1;whiteSpace=wrap;html=1;fillColor=#f5f5f5;fontColor=#333333;strokeColor=#666666;" parent="1" vertex="1">
                    <mxGeometry x="140" y="310" width="100" height="40" as="geometry"/>
                </mxCell>
                <mxCell id="9" value="" style="endArrow=none;dashed=1;html=1;fontFamily=Tahoma;fontColor=#FFFFFF;" parent="1" edge="1">
                    <mxGeometry width="50" height="50" relative="1" as="geometry">
                        <mxPoint x="370" y="230" as="sourcePoint"/>
                        <mxPoint x="420" y="180" as="targetPoint"/>
                    </mxGeometry>
                </mxCell>
                <mxCell id="11" value="" style="endArrow=none;html=1;fontFamily=Tahoma;fontColor=#FFFFFF;" parent="1" edge="1">
                    <mxGeometry width="50" height="50" relative="1" as="geometry">
                        <mxPoint x="370" y="230" as="sourcePoint"/>
                        <mxPoint x="420" y="180" as="targetPoint"/>
                    </mxGeometry>
                </mxCell>
                <mxCell id="12" value="" style="endArrow=classic;html=1;fontFamily=Tahoma;fontColor=#FFFFFF;" parent="1" edge="1">
                    <mxGeometry width="50" height="50" relative="1" as="geometry">
                        <mxPoint x="480" y="270" as="sourcePoint"/>
                        <mxPoint x="440" y="270" as="targetPoint"/>
                    </mxGeometry>
                </mxCell>
                <mxCell id="14" value="File" style="shape=card;whiteSpace=wrap;html=1;fontFamily=Tahoma;fontColor=#ffffff;fillColor=#0050ef;strokeColor=#001DBC;" parent="1" vertex="1">
                    <mxGeometry x="60" y="430" width="80" height="100" as="geometry"/>
                </mxCell>
                <mxCell id="15" value="l" style="endArrow=classic;html=1;fontFamily=Tahoma;fontColor=#FFFFFF;fillColor=#f8cecc;strokeColor=#b85450;" parent="1" edge="1">
                    <mxGeometry relative="1" as="geometry">
                        <mxPoint x="150" y="479.5" as="sourcePoint"/>
                        <mxPoint x="310" y="479.5" as="targetPoint"/>
                        <Array as="points">
                            <mxPoint x="230" y="479.5"/>
                        </Array>
                    </mxGeometry>
                </mxCell>
                <mxCell id="16" value="read" style="edgeLabel;resizable=0;html=1;align=center;verticalAlign=middle;fontFamily=Tahoma;fontColor=#FFFFFF;" parent="15" connectable="0" vertex="1">
                    <mxGeometry relative="1" as="geometry">
                        <mxPoint y="1" as="offset"/>
                    </mxGeometry>
                </mxCell>
                <mxCell id="17" value="bytes" style="edgeLabel;resizable=0;html=1;align=left;verticalAlign=bottom;fontFamily=Tahoma;fontColor=#FFFFFF;" parent="15" connectable="0" vertex="1">
                    <mxGeometry x="-1" relative="1" as="geometry"/>
                </mxCell>
                <mxCell id="19" value="Check parts availability" style="rounded=1;whiteSpace=wrap;html=1;fontFamily=Tahoma;fontSize=11;fontColor=#333333;fillColor=#f5f5f5;strokeColor=#666666;" parent="1" vertex="1">
                    <mxGeometry x="355" y="781" width="120" height="60" as="geometry"/>
                </mxCell>
                <mxCell id="20" value="Hash Integraty of pieces" style="rounded=1;whiteSpace=wrap;html=1;fontFamily=Tahoma;fontSize=11;fontColor=#333333;fillColor=#f5f5f5;strokeColor=#666666;" parent="1" vertex="1">
                    <mxGeometry x="340" y="693" width="120" height="60" as="geometry"/>
                </mxCell>
                <mxCell id="21" value="Search necessary offset" style="rounded=1;whiteSpace=wrap;html=1;fontFamily=Tahoma;fontSize=11;fontColor=#333333;fillColor=#f5f5f5;strokeColor=#666666;" parent="1" vertex="1">
                    <mxGeometry x="506" y="781" width="120" height="60" as="geometry"/>
                </mxCell>
                <mxCell id="22" value=".torrent" style="shape=card;whiteSpace=wrap;html=1;fontFamily=Tahoma;fontColor=#ffffff;fillColor=#60a917;strokeColor=#2D7600;" parent="1" vertex="1">
                    <mxGeometry x="60" y="560" width="80" height="100" as="geometry"/>
                </mxCell>
                <mxCell id="23" value="l" style="endArrow=classic;html=1;fontFamily=Tahoma;fontColor=#FFFFFF;fillColor=#f8cecc;strokeColor=#b85450;" parent="1" edge="1">
                    <mxGeometry relative="1" as="geometry">
                        <mxPoint x="160" y="620" as="sourcePoint"/>
                        <mxPoint x="320" y="620" as="targetPoint"/>
                        <Array as="points">
                            <mxPoint x="240" y="620"/>
                        </Array>
                        <mxPoint as="offset"/>
                    </mxGeometry>
                </mxCell>
                <mxCell id="24" value="decode" style="edgeLabel;resizable=0;html=1;align=center;verticalAlign=middle;fontFamily=Tahoma;fontColor=#FFFFFF;" parent="23" connectable="0" vertex="1">
                    <mxGeometry relative="1" as="geometry">
                        <mxPoint as="offset"/>
                    </mxGeometry>
                </mxCell>
                <mxCell id="25" value="bencode" style="edgeLabel;resizable=0;html=1;align=left;verticalAlign=bottom;fontFamily=Tahoma;fontColor=#FFFFFF;" parent="23" connectable="0" vertex="1">
                    <mxGeometry x="-1" relative="1" as="geometry"/>
                </mxCell>
                <mxCell id="26" value="Build Torrent Info Instance" style="rounded=1;whiteSpace=wrap;html=1;fontFamily=Tahoma;fontSize=11;fillColor=#f5f5f5;fontColor=#333333;strokeColor=#666666;" parent="1" vertex="1">
                    <mxGeometry x="340" y="550" width="120" height="60" as="geometry"/>
                </mxCell>
                <mxCell id="27" value="Set path to Dowload file" style="rounded=1;whiteSpace=wrap;html=1;fontFamily=Tahoma;fontSize=11;fillColor=#f5f5f5;strokeColor=#666666;fontColor=#333333;" parent="1" vertex="1">
                    <mxGeometry x="340" y="620" width="120" height="60" as="geometry"/>
                </mxCell>
                <mxCell id="28" value="App Cache" style="rounded=1;whiteSpace=wrap;html=1;fillColor=#6a00ff;fontColor=#ffffff;strokeColor=#3700CC;" parent="1" vertex="1">
                    <mxGeometry x="176" y="704" width="77" height="60" as="geometry"/>
                </mxCell>
                <mxCell id="39" style="edgeStyle=none;html=1;exitX=1;exitY=0.25;exitDx=0;exitDy=0;" parent="1" source="34" target="28" edge="1">
                    <mxGeometry relative="1" as="geometry"/>
                </mxCell>
                <mxCell id="34" value="Main app" style="shape=hexagon;perimeter=hexagonPerimeter2;whiteSpace=wrap;html=1;fixedSize=1;fillColor=#1D33F5;" parent="1" vertex="1">
                    <mxGeometry x="20" y="781" width="120" height="80" as="geometry"/>
                </mxCell>
                <mxCell id="35" value="" style="endArrow=none;html=1;" parent="1" edge="1">
                    <mxGeometry width="50" height="50" relative="1" as="geometry">
                        <mxPoint x="418" y="677" as="sourcePoint"/>
                        <mxPoint x="468" y="627" as="targetPoint"/>
                    </mxGeometry>
                </mxCell>
                <mxCell id="36" value="" style="endArrow=none;html=1;" parent="1" edge="1">
                    <mxGeometry width="50" height="50" relative="1" as="geometry">
                        <mxPoint x="418" y="677" as="sourcePoint"/>
                        <mxPoint x="468" y="627" as="targetPoint"/>
                    </mxGeometry>
                </mxCell>
                <mxCell id="37" value="" style="endArrow=none;html=1;" parent="1" edge="1">
                    <mxGeometry width="50" height="50" relative="1" as="geometry">
                        <mxPoint x="418" y="677" as="sourcePoint"/>
                        <mxPoint x="468" y="627" as="targetPoint"/>
                    </mxGeometry>
                </mxCell>
                <mxCell id="38" value="" style="endArrow=classic;html=1;" parent="1" edge="1">
                    <mxGeometry width="50" height="50" relative="1" as="geometry">
                        <mxPoint x="418" y="677" as="sourcePoint"/>
                        <mxPoint x="468" y="627" as="targetPoint"/>
                    </mxGeometry>
                </mxCell>
                <mxCell id="48" style="edgeStyle=none;html=1;exitX=1;exitY=0.5;exitDx=0;exitDy=0;exitPerimeter=0;entryX=-0.003;entryY=0.117;entryDx=0;entryDy=0;entryPerimeter=0;" parent="1" source="40" target="43" edge="1">
                    <mxGeometry relative="1" as="geometry"/>
                </mxCell>
                <mxCell id="40" value="Write info on disk" style="shape=cylinder3;whiteSpace=wrap;html=1;boundedLbl=1;backgroundOutline=1;size=15;fillColor=#1D33F5;" parent="1" vertex="1">
                    <mxGeometry x="556" y="660" width="60" height="80" as="geometry"/>
                </mxCell>
                <mxCell id="46" style="edgeStyle=none;html=1;exitX=0.25;exitY=0;exitDx=0;exitDy=0;" parent="1" source="41" edge="1">
                    <mxGeometry relative="1" as="geometry">
                        <mxPoint x="679" y="484" as="targetPoint"/>
                    </mxGeometry>
                </mxCell>
                <mxCell id="41" value="List" style="swimlane;fontStyle=0;childLayout=stackLayout;horizontal=1;startSize=30;horizontalStack=0;resizeParent=1;resizeParentMax=0;resizeLast=0;collapsible=1;marginBottom=0;fillColor=#1D33F5;" parent="1" vertex="1">
                    <mxGeometry x="649" y="642.5" width="209" height="115" as="geometry"/>
                </mxCell>
                <mxCell id="42" value="Build new file empty of full size" style="text;strokeColor=none;fillColor=none;align=left;verticalAlign=middle;spacingLeft=4;spacingRight=4;overflow=hidden;points=[[0,0.5],[1,0.5]];portConstraint=eastwest;rotatable=0;" parent="41" vertex="1">
                    <mxGeometry y="30" width="209" height="25" as="geometry"/>
                </mxCell>
                <mxCell id="43" value="Copy in the correspondig offset pieces" style="text;strokeColor=none;fillColor=none;align=left;verticalAlign=middle;spacingLeft=4;spacingRight=4;overflow=hidden;points=[[0,0.5],[1,0.5]];portConstraint=eastwest;rotatable=0;" parent="41" vertex="1">
                    <mxGeometry y="55" width="209" height="30" as="geometry"/>
                </mxCell>
                <mxCell id="44" value="Write piece on disk" style="text;strokeColor=none;fillColor=none;align=left;verticalAlign=middle;spacingLeft=4;spacingRight=4;overflow=hidden;points=[[0,0.5],[1,0.5]];portConstraint=eastwest;rotatable=0;" parent="41" vertex="1">
                    <mxGeometry y="85" width="209" height="30" as="geometry"/>
                </mxCell>
                <mxCell id="50" value="Build .torrent" style="rhombus;whiteSpace=wrap;html=1;fillColor=#d80073;fontColor=#ffffff;strokeColor=#A50040;" vertex="1" parent="1">
                    <mxGeometry x="183" y="363" width="80" height="80" as="geometry"/>
                </mxCell>
                <mxCell id="55" value="" style="swimlane;startSize=0;" vertex="1" parent="1">
                    <mxGeometry x="44" y="363" width="506" height="176" as="geometry"/>
                </mxCell>
                <mxCell id="51" value="Do" style="swimlane;fontStyle=0;childLayout=stackLayout;horizontal=1;startSize=30;horizontalStack=0;resizeParent=1;resizeParentMax=0;resizeLast=0;collapsible=1;marginBottom=0;fillColor=#1D33F5;" vertex="1" parent="55">
                    <mxGeometry x="277" y="11" width="209" height="55" as="geometry"/>
                </mxCell>
                <mxCell id="52" value="get  torrent mediainfo" style="text;strokeColor=none;fillColor=none;align=left;verticalAlign=middle;spacingLeft=4;spacingRight=4;overflow=hidden;points=[[0,0.5],[1,0.5]];portConstraint=eastwest;rotatable=0;" vertex="1" parent="51">
                    <mxGeometry y="30" width="209" height="25" as="geometry"/>
                </mxCell>
            </root>
        </mxGraphModel>
    </diagram>
</mxfile>